<svg width="132" height="35" viewBox="0 0 132 35" fill="none" xmlns="http://www.w3.org/2000/svg">
<path d="M35.3286 0.32864C38.7793 0.32864 42.3943 0.32864 46.0094 0.32864C46.0094 5.75118 46.0094 11.1737 46.0094 16.4319C46.1737 16.1033 46.5023 15.7746 46.6666 15.2817C49.6244 10.3521 52.4178 5.25822 55.3756 0.32864C55.5399 0.16432 55.5399 0.164323 55.7042 0.164323C59.6479 0.164323 63.4272 0.164323 67.3709 0.164323C67.3709 0.164323 67.5352 0.164323 67.6995 0.164323C67.6995 5.58686 67.6995 11.0094 67.6995 16.2676C67.6995 16.1033 67.8638 16.1033 67.8638 15.939C70.6573 11.1737 73.4507 6.40845 76.2441 1.64319C76.5727 1.15023 76.7371 0.657281 77.0657 0.164323C77.0657 0.164323 77.23 0 77.3943 0C81.338 0 85.2817 0 89.2253 0C89.2253 0 89.2253 0 89.3897 0C89.3897 0.164319 89.2253 0.164323 89.2253 0.164323C82.8169 11.1737 76.2441 22.3474 69.8357 33.3568C69.6713 33.6854 69.507 33.8498 69.3427 34.1784L69.1784 34.3427C65.2347 34.3427 61.2911 34.3427 57.3474 34.3427C57.3474 28.9202 57.3474 23.4977 57.3474 18.2394C57.3474 18.4038 57.1831 18.4038 57.1831 18.5681C54.061 23.8263 51.1033 29.0845 47.9812 34.3427C47.9812 34.507 47.8169 34.507 47.6526 34.507C43.7089 34.507 39.9296 34.507 35.9859 34.507H35.8216C35.3286 23.3333 35.3286 11.831 35.3286 0.32864Z" fill="white"/>
<path d="M104.835 0.328613C104.835 11.831 104.835 23.3333 104.835 34.8357C101.384 34.8357 97.7693 34.8357 94.1543 34.8357C94.1543 29.4131 94.1543 23.9906 94.1543 18.7324L93.9899 18.8967C90.8679 24.1549 87.9101 29.4131 84.7881 34.6713C84.6237 34.8357 84.4594 35 84.2951 35C80.5158 35 76.7364 35 72.7927 35C72.6284 35 72.6284 35 72.4641 35C72.4641 34.8357 72.6284 34.8357 72.6284 34.6713C79.2012 23.3333 85.9383 11.9953 92.5111 0.657253C92.6754 0.492934 92.6754 0.328613 93.004 0.328613C96.7834 0.328613 100.727 0.328613 104.506 0.328613C104.671 0.328613 104.671 0.328613 104.835 0.328613Z" fill="white"/>
<path d="M32.0423 0.328613C32.0423 11.831 32.0423 23.3333 32.0423 34.8357C28.5916 34.8357 24.9765 34.8357 21.5258 34.8357C21.5258 29.4131 21.5258 23.9906 21.5258 18.568L21.3615 18.7324C18.2394 23.9906 15.1174 29.2488 12.1596 34.507C12.1596 34.6713 11.9953 34.6713 11.831 34.6713C7.88732 34.6713 4.10798 34.6713 0.164318 34.6713H0C0 34.507 -9.53674e-07 34.507 0.164318 34.507C6.73709 23.169 13.4742 11.831 20.0469 0.49293C20.2113 0.328611 20.2113 0.328613 20.3756 0.328613C24.1549 0.328613 28.0986 0.328613 31.8779 0.328613C31.8779 0.328613 31.8779 0.328613 32.0423 0.328613Z" fill="white"/>
<path d="M118.804 0.328613C118.804 8.21594 118.804 16.2676 118.804 24.1549C122.912 24.1549 127.184 24.1549 131.292 24.1549C131.292 27.7699 131.292 31.2206 131.292 34.8357C123.569 34.8357 115.846 34.8357 108.123 34.8357C108.123 23.3333 108.123 11.831 108.123 0.328613C111.738 0.328613 115.189 0.328613 118.804 0.328613Z" fill="white"/>
</svg>
