<svg width="50" height="35" viewBox="0 0 50 35" fill="none" xmlns="http://www.w3.org/2000/svg">
<path d="M49.8222 13.1152C49.6435 12.5723 49.1668 12.2413 48.7762 12.1553C47.909 11.9633 46.8432 12.4002 45.5986 13.4528C44.1952 14.6444 42.8182 15.2865 42.0966 15.0747C41.567 14.9224 41.1897 14.6378 40.9845 14.234C40.6998 13.6845 40.7197 12.91 41.0507 11.9368C41.898 9.43446 43.5729 7.90523 44.8572 7.49479C45.5324 7.27633 45.9296 7.42859 46.1481 7.58747C46.3864 7.76621 46.4725 8.01777 46.4725 8.18989V8.19651C46.4659 8.71287 46.1613 8.85189 45.7377 8.98429L45.6913 8.99753C45.2081 9.14979 44.2283 9.45431 44.2283 10.3414C44.2283 10.3811 44.2283 10.4208 44.2349 10.4672C44.268 10.7982 44.4467 11.0497 44.7447 11.1954C45.261 11.4337 46.0091 11.2814 46.4261 10.9968C47.1212 10.5201 47.8825 9.54037 47.7435 8.35539C47.6111 7.23661 46.9028 6.46207 45.837 6.29657C45.069 6.17079 43.7914 6.27671 42.0635 7.45507C40.4152 8.58047 39.5413 9.89124 38.9588 10.9107C38.0518 12.5061 37.9724 13.8434 37.9724 14.2604V14.3266C37.8069 14.4988 37.178 15.1343 36.7212 15.5116C36.708 15.5182 35.9533 16.167 35.4502 15.9154C34.8477 15.6109 35.1258 14.8496 35.2714 14.5385C35.4502 14.1545 38.0055 7.85889 38.1246 7.56761C38.1908 7.44845 38.2438 7.28957 38.1445 7.19027C38.0187 7.07111 37.8267 7.19027 37.7341 7.24985C37.3435 7.49479 36.9926 7.60071 36.5822 7.58747C36.2379 7.57423 35.9069 7.45507 35.8341 7.42859C35.7878 7.39549 35.6819 7.33591 35.5495 7.36901C35.4237 7.39549 35.3244 7.49479 35.2516 7.65367L35.1059 7.98467C34.9139 8.44145 34.6227 9.12993 34.2519 9.79856C33.6892 10.8247 33.1464 11.4072 32.6896 11.8508C32.2858 12.2347 31.7628 12.6187 31.4318 12.8504C31.5377 12.4333 31.69 11.725 31.69 11.0299C31.69 10.6856 31.6569 10.3414 31.5576 10.0369C31.3391 9.37488 30.9088 8.85189 30.3329 8.56723C29.6047 8.20975 28.7044 8.22299 27.6385 8.60033C26.5264 8.99753 25.348 10.0634 24.6728 10.7452C25.1825 9.59996 27.2082 5.18441 27.2082 5.18441C27.2082 5.18441 15.9079 13.519 15.696 13.6713C15.4114 13.3403 14.4647 12.3539 12.9554 12.1619C11.4725 11.9699 10.0426 12.4598 9.13561 13.4727C8.06979 14.651 7.81161 16.0942 8.40079 17.5373C9.00321 19.0202 10.2809 19.3248 10.7972 19.391C11.8895 19.5234 12.7965 19.0997 13.2069 18.2523C13.3526 17.9544 13.4055 17.6764 13.4055 17.4314C13.4055 17.0342 13.2665 16.7297 13.1738 16.5774C13.3526 16.445 14.4713 15.6175 14.6633 15.4719C14.8288 15.7301 15.1995 16.4252 15.1995 17.352C15.1995 17.6366 15.1664 17.9412 15.0804 18.2523C14.7097 19.616 13.71 20.3442 12.9355 20.7083C11.8233 21.2379 8.77151 21.5756 6.96425 19.1195C4.93191 16.359 6.01097 13.3005 6.87157 12.0758C7.79837 10.7518 8.98997 9.80518 10.4133 9.26895C11.062 9.02401 11.9491 8.88499 12.7435 8.90485C13.4916 8.92471 14.1403 9.05049 14.9083 9.32853C16.0866 9.75883 16.9207 10.5201 16.9274 10.5268L17.0134 10.6062L19.2179 8.97767L18.9465 8.89161C18.9266 8.88499 16.9936 8.28919 16.3316 6.81955C15.3981 4.76735 16.4838 3.40362 17.0002 2.91374C17.9402 2.0068 19.4562 1.80158 20.522 2.45034C21.2833 2.91374 21.4224 3.60884 21.4224 4.04577V4.08549C21.2105 3.84716 20.8398 3.55588 20.2771 3.54264C19.443 3.51616 18.4765 4.09211 18.3242 5.19103C18.258 5.66767 18.3771 6.11121 18.6684 6.48855C19.0259 6.95195 19.6217 7.26971 20.2639 7.34915C21.5349 7.50141 22.7596 6.62095 23.17 5.25723C23.5739 3.91998 23.1965 2.0068 21.6938 0.93436C20.2506 -0.0983621 17.9005 -0.588243 15.6365 1.1462C14.895 1.7089 14.1006 2.85416 14.1006 4.33705C14.1006 4.49593 14.1072 4.66143 14.1271 4.83355C14.2595 5.94571 14.6501 6.77983 14.9281 7.24985C14.2065 6.93209 12.7369 6.40249 11.1018 6.43559C9.73804 6.46869 6.30887 6.89899 3.85947 10.209C1.76754 13.0357 2.07206 16.4649 3.05844 18.7289C4.16399 21.2843 6.81861 23.0187 9.8241 23.1511C12.3463 23.2637 14.5508 22.3964 15.8814 20.7679C16.8148 19.6293 17.0598 18.3715 17.0598 17.3652C17.0598 16.69 16.9472 16.1273 16.8612 15.783C16.6758 15.0681 16.3978 14.565 16.2654 14.3465C16.464 14.2009 21.9122 10.2024 22.6338 9.67278C22.2631 10.5532 17.0598 22.9856 17.0134 23.1048C16.2256 23.3497 7.77851 26.0043 1.37696 29.6122C1.37696 29.6122 0.920181 30.8701 0.522981 32.4853C0.12578 34.094 0 35.0009 0 35.0009C6.92453 29.9168 14.147 26.8782 15.6298 26.3221C15.418 26.8186 14.1403 29.7182 14.1403 29.7182C14.1403 29.7182 14.3588 29.4997 14.6898 29.2614C15.0208 29.0231 15.8946 28.3809 16.9869 27.9241C18.1521 27.4276 19.1186 27.2555 19.1318 27.2555L19.4628 27.1959L19.1914 26.9973C19.1848 26.9907 18.728 26.6597 18.6022 26.0772C18.5691 25.9315 18.5559 25.7991 18.5559 25.68C18.5559 25.4085 18.6221 25.2166 18.6552 25.1305C18.9663 24.9981 21.0185 24.1507 26.2086 22.8532C29.7569 21.9661 33.9276 21.2313 36.9661 20.7017C38.9124 20.3575 40.4483 20.0861 41.2956 19.8742L41.4611 19.8345C43.6259 19.2983 46.585 18.5635 48.71 16.0677C49.6368 14.9754 49.9016 14.1744 49.9016 13.6051C49.9016 13.4197 49.8685 13.2542 49.8222 13.1152ZM12.5979 15.9816C12.4655 15.8823 12.2007 15.7367 11.7638 15.7102C11.3202 15.6837 10.9363 15.8426 10.7112 15.9618V15.9353C10.7112 15.6705 10.7708 15.2336 11.0885 14.8298C11.5188 14.2869 12.1874 14.042 12.8693 14.1744C13.4651 14.2869 13.902 14.6378 14.0874 14.8165C13.8888 14.9754 12.7501 15.8625 12.5979 15.9816ZM47.7766 15.5646C47.5648 15.8823 47.247 16.22 46.8829 16.5245C46.2871 17.0077 45.4993 17.4447 44.5394 17.822C43.1426 18.3649 41.5869 18.6164 38.9455 19.0268L36.0393 19.4572C34.3976 19.6955 32.6962 19.9404 30.4189 20.3178C26.2814 20.9996 22.8126 21.6682 19.8137 22.3567C20.2109 21.377 21.6673 17.7492 22.1373 16.7628L22.4352 16.1207C22.9979 14.8893 23.8585 13.0225 24.6 12.2082C25.6989 11.0166 27.3142 9.93758 28.2939 10.1693C29.1214 10.3613 29.3862 11.0696 29.128 12.387C28.9228 13.4263 28.2873 14.8033 27.6187 15.2203C27.2678 15.4388 26.8706 15.4984 26.5065 15.3991C26.2152 15.3196 25.9703 15.1409 25.8578 14.9158C25.6261 14.459 25.9703 13.8037 25.9703 13.797L26.0961 13.5653L25.8379 13.5852C25.7849 13.5918 24.5536 13.6977 23.7989 14.6576C22.9781 15.697 22.8721 17.0607 23.5408 17.9743C23.9578 18.5502 24.6463 18.868 25.4208 18.8547C26.2219 18.8415 27.0096 18.4972 27.4135 18.2986C29.6775 17.16 30.6308 15.0681 30.7764 14.704C30.9618 14.6113 31.6437 14.2604 32.4513 13.6514C32.822 13.38 33.1464 13.0688 33.4046 12.804C33.0272 13.7772 32.405 15.4256 32.2792 16.0611C32.2328 16.2729 32.1997 16.5245 32.1997 16.7827C32.1997 17.1203 32.2593 17.4711 32.4513 17.7492C32.63 18.0074 32.8948 18.1729 33.2391 18.2324C34.3579 18.431 35.3442 17.8088 36.2578 17.16C37.0257 16.6105 37.8466 15.6639 38.1842 15.2468C38.3497 15.6705 38.7999 16.5046 39.826 16.8621C40.8455 17.2196 41.8054 17.2394 43.414 16.2663C44.4666 15.6308 45.1816 14.9423 45.6979 14.4326C45.9495 14.1942 46.168 13.989 46.3533 13.8434C46.9888 13.3667 47.5449 13.3403 47.9156 13.7706C48.0613 13.9427 48.1672 14.1876 48.1672 14.4921C48.154 14.79 48.048 15.1608 47.7766 15.5646ZM26.8839 16.3259C26.5793 16.6767 25.9571 17.2858 25.262 17.2858C24.9045 17.2858 24.5801 17.16 24.3749 16.9415C24.2028 16.7562 24.1167 16.5112 24.1167 16.2067C24.1167 16.1604 24.1167 16.1207 24.1233 16.0743C24.1763 15.4057 24.5867 15.0681 24.8184 14.9224C24.8714 15.2005 25.0104 15.6705 25.4539 15.9552C25.9769 16.2862 26.5396 16.3325 26.8839 16.3259ZM38.1114 3.3639C38.7933 3.57574 39.581 3.01966 39.8723 2.11934C40.0378 1.60298 40.0113 1.07338 39.7995 0.662939C39.6539 0.378279 39.4288 0.186298 39.1574 0.100238C38.4755 -0.111602 37.6877 0.444479 37.3964 1.3448C37.3236 1.56988 37.2905 1.80158 37.2905 2.02004C37.2905 2.3047 37.3501 2.57612 37.4693 2.80782C37.6215 3.08586 37.84 3.28446 38.1114 3.3639ZM49.636 7.04397C49.636 7.5248 49.2384 7.91748 48.7488 7.91748C48.2563 7.91748 47.8587 7.5248 47.8587 7.04397C47.8587 6.56236 48.2563 6.17338 48.7488 6.17338C49.2384 6.17338 49.636 6.56472 49.636 7.04397ZM47.9925 7.04397C47.9925 7.47205 48.3323 7.81791 48.7488 7.81791C49.1648 7.81791 49.5024 7.46107 49.5024 7.02101C49.5024 6.62173 49.1648 6.2939 48.7488 6.2939C48.33 6.2939 47.9925 6.62889 47.9925 7.04397ZM48.3377 6.54915H48.8346C49.0727 6.54915 49.1575 6.62677 49.1575 6.84439C49.1575 7.01093 49.0409 7.10322 48.9282 7.10322C49.0259 7.10322 49.1438 7.22228 49.1438 7.33081V7.52301H48.9709V7.36083C48.9709 7.24849 48.8524 7.17535 48.7263 7.17535H48.51V7.52301H48.3377V6.54915ZM48.7187 7.03132C48.8989 7.03132 48.9842 6.99794 48.9842 6.87205C48.9842 6.7185 48.9604 6.6933 48.8267 6.6933H48.51V7.03132H48.7187Z" fill="white"/>
</svg>
