<svg width="84" height="35" viewBox="0 0 84 35" fill="none" xmlns="http://www.w3.org/2000/svg">
<path d="M13.1905 6.34554C13.4052 6.34894 13.6314 6.36632 13.8412 6.4115C14.2058 6.48994 14.5057 6.62637 14.71 6.94971C15.8726 8.78919 13.012 15.6665 12.1008 17.6306C11.5338 18.8527 10.8755 20.0442 10.2246 21.2238C9.78111 22.0275 9.00979 22.7091 8.6966 23.5624C8.38595 24.4087 8.36043 25.3423 8.26042 26.2311C8.1129 27.542 7.97538 28.9205 7.68952 30.2087C8.6895 29.8174 10.1172 29.4092 11.162 29.1018C13.7973 28.3208 16.4637 27.649 19.1544 27.0882C22.6315 26.351 26.1509 25.8297 29.6923 25.527C32.2612 25.3103 34.6245 25.2261 37.1801 25.6509C37.7993 25.7607 40.3472 25.6963 39.5157 26.9074C39.3153 27.1993 38.9207 27.2737 38.5872 27.2298C37.6709 27.0906 36.7098 27.1336 35.7981 27.0373C32.7995 26.7204 29.8523 27.1014 26.8809 27.5001C26.1832 27.5937 25.4367 27.7377 24.7361 27.8038C23.2872 28.0778 21.8802 28.2849 20.4168 28.6046C15.3327 29.715 10.1895 31.1255 5.38593 33.1368C4.92182 33.3365 4.5313 33.541 4.12362 33.8538C3.48159 34.3465 2.80485 35.2651 1.87854 34.927C1.55268 34.808 1.37493 34.4068 1.25769 34.1022C1.7922 32.4943 3.21569 32.0931 4.60379 31.3844C5.06075 31.1511 5.31864 31.1217 5.67459 30.7358C5.95755 29.2736 6.03692 27.7997 6.31504 26.3368C6.39794 25.9008 6.46089 25.4443 6.52618 25.0046C6.28413 25.1736 5.67871 25.5305 5.4095 25.6563C3.63794 26.484 2.27997 27.3593 0.27563 26.6973C0.151911 26.6565 0.0596873 26.6129 0 26.4963C0.0306355 25.971 1.85958 25.4263 2.33699 25.2481C2.70901 25.1118 3.07509 24.96 3.4343 24.7929C4.48424 24.3035 6.16887 23.2773 6.73136 22.217C7.024 21.5171 7.44027 20.1618 7.42547 19.4215C7.34502 15.4041 8.10498 11.4675 10.4256 8.10581C11.1101 7.11439 11.9451 6.55119 13.1905 6.34554ZM8.96875 19.6654C9.39805 18.8592 9.77839 18.0135 10.1949 17.2041C10.8545 15.9222 11.4682 14.6976 11.9402 13.3278C12.3158 12.2376 12.6085 11.0804 12.8863 9.96054C12.9395 9.74607 13.2229 8.63859 13.2128 8.48469L13.1266 8.44983C10.6208 10.6886 9.91333 14.0066 9.34361 17.1639C9.28356 17.4969 8.82851 19.4986 8.90458 19.6671L8.96875 19.6654Z" fill="white"/>
<path d="M48.3264 1.59282C48.6481 1.59672 49.011 1.67788 49.3038 1.8092C49.5636 1.92585 49.8179 2.10927 49.9161 2.38756C50.5591 4.20608 48.2979 9.28848 47.6729 11.2472C47.2584 12.5464 47.0466 13.9857 46.471 15.2212C47.3829 14.5097 48.5409 13.0873 49.402 12.2174C50.7188 10.8879 51.9841 9.53767 53.3552 8.25392C53.805 7.83281 54.2417 7.25643 54.7119 6.84474C55.278 6.3488 55.8662 5.85015 56.4482 5.36992C57.0523 4.86656 57.4406 4.40675 58.0854 3.9253C58.5922 3.54678 59.4787 3.7106 59.2031 4.43454C59.142 4.59569 58.5352 5.10715 58.3551 5.29288C56.8704 6.82029 55.1861 8.14238 53.6154 9.58221C52.2112 10.8508 50.9378 12.2571 49.8142 13.7799C49.5658 14.1168 48.8974 14.9768 48.7884 15.3435C48.8038 15.688 49.4246 16.1903 49.5893 16.4963C50.041 17.3342 50.3423 18.2897 50.7351 19.1548C51.728 21.3781 53.1656 23.3741 54.9603 25.0194C55.9794 25.9591 57.1021 26.8311 58.0234 27.8643C58.4519 28.3408 58.366 28.9367 57.6007 28.654C57.2138 28.511 56.8595 28.288 56.4939 28.0923C54.9481 27.2647 53.7055 26.1122 52.5031 24.8511C51.1809 23.4637 49.9084 22.0226 49.0667 20.2789C48.6762 19.47 48.2834 18.6551 47.8892 17.8445C47.7752 17.5944 47.582 17.2903 47.4385 17.0489C47.2589 17.2854 47.0471 17.4932 46.872 17.734C46.4344 18.335 46.0561 18.9938 45.6628 19.6246C44.9927 20.6995 44.2817 21.7488 43.8134 22.9326C43.4034 23.97 43.0966 25.0532 42.7559 26.115C42.4432 27.0887 42.0956 28.0508 41.7712 29.0205C41.587 29.5705 41.392 30.514 41.0616 30.9745C40.9888 31.0766 40.8811 31.1271 40.7593 31.1487C40.5165 31.1918 40.2083 31.1154 40.0137 30.9635C39.919 30.8897 39.8623 30.7876 39.8513 30.6678C39.8341 30.4808 40.1726 28.9331 40.2316 28.6371C40.6402 26.5858 41.0023 24.4138 41.6123 22.4144C42.1911 20.5164 42.8821 18.6381 43.5573 16.7719C44.3736 14.5147 47.4286 6.75 47.0846 4.74249C47.0675 4.64186 47.0566 4.64136 46.9774 4.58428C46.581 4.57369 46.0045 5.28994 45.6959 5.59127C43.1405 8.12496 40.9838 11.0312 39.2987 14.2112C38.9088 14.9585 37.7419 17.5333 37.1139 17.8393C36.8717 17.9574 36.5899 17.9857 36.334 17.8981C36.2801 17.8797 36.2824 17.8518 36.2577 17.803C36.3343 17.3079 36.8316 16.3141 37.0572 15.8091C38.1341 13.3991 39.0318 10.8718 40.6163 8.73591C42.2291 6.57074 44.1668 4.58863 46.1905 2.80759C46.8833 2.1979 47.3869 1.74306 48.3264 1.59282Z" fill="white"/>
<path d="M37.2048 5.94326C37.794 5.79909 37.8045 6.36338 37.698 6.76471C37.517 7.44605 37.3102 8.10798 37.1057 8.78181L36.3028 11.5061L34.3441 18.2157C34.0402 19.2329 33.6438 20.2204 33.3758 21.2486C33.2813 21.6107 33.1773 21.9708 33.0793 22.332C33.7426 21.779 35.2357 19.4945 35.9355 19.5263C36.5344 19.8999 35.2964 21.7015 35.0738 22.2428C34.6707 23.2228 33.8877 23.9713 32.8207 24.2038C32.4152 24.0029 31.9905 23.7836 31.5763 23.6065C30.6629 23.9895 30.7542 24.3942 29.5856 24.6459C28.3336 24.23 28.2769 23.4517 28.5374 22.278L28.5076 22.3061C28.2057 22.5869 27.8115 22.8213 27.4383 23.086C26.3242 23.8762 24.7138 25.0935 23.4366 23.8688C22.9902 23.4407 22.9431 22.6194 22.9676 22.0088C22.677 22.4608 22.3815 22.9096 22.081 23.3551C21.4508 24.2951 21.1999 24.7597 20.0899 25.1743C18.6897 24.8127 18.6493 23.7639 18.856 22.5658C18.9092 22.2576 18.9124 22.0453 19.0299 21.7408C18.2711 22.049 17.2584 22.3545 16.5469 22.7546C16.3125 22.8863 16.1239 23.6645 15.9424 23.9793C15.4928 24.759 14.8055 25.683 14.0855 26.2303C13.6725 26.5443 13.2903 26.5368 12.8263 26.4443C11.4597 25.7754 11.7994 24.4758 11.88 23.2591C12.0057 21.3624 13.1535 19.0651 15.2497 18.8525C16.5521 18.7204 16.995 20.0367 17.0335 21.0926C17.4523 20.969 18.9114 20.7423 19.1646 20.5918C19.8876 20.1623 19.4889 18.7329 20.5322 18.2048C20.9607 18.285 21.108 18.2998 21.4687 18.5417C21.4106 18.9852 21.1099 19.892 20.9706 20.3495L20.178 22.9894C21.2893 22.0518 22.4306 20.0909 23.4304 18.9784C23.8452 18.5168 24.1816 17.9197 24.9136 18.0937C26.2757 18.4176 25.2201 19.5354 24.9105 20.2511C24.663 20.6257 24.1004 22.5069 24.7142 22.7044C25.0363 22.808 27.9532 21.0968 28.3633 20.8926C29.5334 20.31 29.7073 18.5704 30.8021 17.8402C31.568 17.3292 32.2535 17.4538 33.0642 17.6153C33.4303 16.7219 33.8145 15.231 34.07 14.2639C34.7333 11.7534 35.6921 9.22655 36.0268 6.6553C36.1123 5.9979 36.6711 6.00754 37.2048 5.94326ZM30.1878 22.8742C31.1071 21.8675 32.0775 20.9328 32.0021 19.4547C31.9936 19.2876 31.9678 18.8364 31.8758 18.7245C31.0095 19.7593 30.3448 21.5236 30.0836 22.8362L30.1408 22.8808L30.1878 22.8742ZM13.3615 24.7805C13.5585 24.6544 13.728 24.5618 13.876 24.3784C14.3895 23.8864 14.7734 23.0908 15.0175 22.4246C14.8403 22.1796 14.5285 21.7051 14.2755 21.5629C13.6606 22.7201 13.6131 23.5262 13.3615 24.7805Z" fill="white"/>
<path d="M67.9313 0C69.2653 0.0142136 68.7386 1.49111 68.5196 2.28173C68.3182 3.0097 68.1055 3.73622 67.901 4.46329C67.3141 6.52878 66.7543 8.60188 66.2217 10.6821C65.8479 12.1192 64.7311 16.0384 64.8917 17.3864C66.0443 16.247 67.7001 14.5413 68.6961 13.2126C69.0341 12.4326 69.3251 11.4645 69.5798 10.6657C69.731 10.1923 70.3677 8.87977 70.1229 8.55046C69.788 8.44517 68.411 8.67933 68.0363 8.77416C68.4558 6.59555 69.9753 7.49358 70.7754 6.89476C71.4528 6.38764 71.689 2.80202 73.4579 3.14219C73.8285 3.2134 74.005 3.49405 74.2105 3.77864C73.724 4.73203 73.162 5.66555 72.6674 6.63828C74.0295 6.38384 82.5069 5.02409 83.2581 5.21054C83.359 5.23548 83.3744 5.24449 83.4301 5.33385C83.1925 6.00849 79.8534 6.55879 79.0583 6.72284L74.1629 7.73816C73.7996 7.81212 72.1746 8.10368 72.0447 8.26089C71.2691 9.19912 70.5577 12.0047 70.3088 13.0419C68.6847 19.8065 73.071 15.2147 74.1286 15.3618L74.1679 15.3677C74.2688 15.4235 74.2788 15.433 74.3394 15.531C74.3489 15.7164 73.8276 16.6665 73.6828 16.8316C71.9144 18.851 68.7793 18.3851 68.4055 15.46L66.8842 17.3586C66.3715 17.9967 65.5963 19.1495 64.6501 19.0294C63.2161 18.8473 63.2043 17.7627 63.3274 16.5814C61.9526 17.3383 60.233 18.9886 58.666 18.9391C58.3981 18.9306 57.7152 18.5203 57.5455 18.256C57.1532 17.6458 57.1559 17.1493 57.2591 16.4774C56.936 16.9818 56.6088 17.4835 56.2776 17.9823C55.8685 18.5999 55.2775 19.5095 54.4906 19.6573C54.1892 19.7139 53.8874 19.6273 53.6403 19.4508C53.3027 19.2096 53.0756 18.7465 53.0104 18.3448C52.8764 17.5238 53.8403 13.7809 54.3462 13.0983C54.4693 12.9324 54.6521 12.8036 54.8585 12.7745C55.0467 12.7479 55.4192 12.8366 55.5608 12.9555C56.0061 13.3294 54.4512 16.6067 54.5548 17.3205L54.6196 17.3301C55.063 17.0628 57.4034 13.8038 57.9465 13.205C58.1849 12.9417 58.4325 12.6396 58.8406 12.6145C59.1153 12.6003 59.5135 12.7355 59.7176 12.9211C60.1448 13.3282 59.5982 13.7992 59.4674 14.1435C59.1986 14.8503 58.2121 16.6061 58.937 17.2441C59.1438 17.2917 59.5113 17.0794 59.7154 16.9883C60.9842 16.4216 62.6332 15.6039 63.4998 14.476C63.8378 14.0358 64.2265 12.2754 64.4017 11.6398L65.5492 7.42867C65.7443 6.7327 66.0371 6.02402 66.1896 5.32221C66.4267 4.23465 66.6765 3.15505 66.9326 2.07124C67.048 1.584 67.1113 1.0289 67.2494 0.554963C67.339 0.247335 67.6602 0.116334 67.9313 0Z" fill="white"/>
</svg>
