<svg width="95" height="35" viewBox="0 0 95 35" fill="none" xmlns="http://www.w3.org/2000/svg">
<path d="M42.1045 13.6952V19.2687H40.7031V13.6952H38.7285V12.3257H44.0791V13.6952H42.1045Z" fill="white"/>
<path d="M48.2192 19.2686V16.4659C48.2192 15.5423 47.9007 15.2557 47.3274 15.2557C46.7542 15.2557 46.4357 15.5423 46.4357 16.4341V19.2686H45.0662V12.7396L46.4357 12.0708V14.4276C46.6586 14.1728 47.1045 13.9817 47.6459 13.9817C48.9836 13.9817 49.5569 14.9053 49.5569 16.3704V19.3005L48.2192 19.2686Z" fill="white"/>
<path d="M55.0663 17.1029H51.9451C52.0088 17.8036 52.5184 18.0902 53.0279 18.0902C53.4101 18.0902 53.7286 17.9628 53.9197 17.7399L54.907 18.5679C54.493 19.1094 53.7286 19.396 53.0598 19.396C51.5629 19.396 50.6074 18.345 50.6074 16.6888C50.6074 15.0964 51.5947 13.9817 52.9324 13.9817C54.3337 13.9817 55.13 15.2238 55.13 16.6888C55.0663 16.8799 55.0663 17.0073 55.0663 17.1029ZM52.8368 15.1601C52.3591 15.1601 52.0406 15.5741 51.9769 16.0837H53.7605C53.7286 15.606 53.442 15.1601 52.8368 15.1601Z" fill="white"/>
<path d="M33.41 30.8618C30.0977 30.8618 28.123 28.2821 28.123 24.5876C28.123 20.8931 30.0977 18.3452 33.41 18.3452C36.7222 18.3452 38.6969 20.925 38.6969 24.5876C38.6969 28.2821 36.7222 30.8618 33.41 30.8618ZM33.41 20.7657C31.4353 20.7657 30.6391 22.4537 30.6391 24.6194C30.6391 26.7852 31.4672 28.4732 33.41 28.4732C35.3846 28.4732 36.1808 26.7852 36.1808 24.6194C36.1808 22.4219 35.3846 20.7657 33.41 20.7657Z" fill="white"/>
<path d="M46.0844 24.3644C45.7022 24.0141 45.2245 23.7593 44.683 23.7593C43.7594 23.7593 43.1543 24.1415 43.1543 25.7339V30.6705H40.7656V21.5617H43.1543V22.1668C43.5683 21.7209 44.1735 21.3706 45.0334 21.3706C45.7977 21.3706 46.4029 21.6891 46.7214 22.0076L46.0844 24.3644Z" fill="white"/>
<path d="M51.7228 30.8616C49.3342 30.8616 47.4551 28.9188 47.4551 26.1161C47.4551 23.3134 49.3023 21.3706 51.8184 21.3706C53.5382 21.3706 54.6529 22.2305 55.4173 23.3771L53.8248 24.9695C53.2834 24.2052 52.7101 23.6637 51.7547 23.6637C50.6081 23.6637 49.8756 24.6192 49.8756 26.1161C49.8756 27.5811 50.6081 28.5366 51.7547 28.5366C52.6783 28.5366 53.2834 28.1226 53.9204 27.39L55.4491 28.8232C54.5574 30.0016 53.5382 30.8616 51.7228 30.8616Z" fill="white"/>
<path d="M62.7436 30.6706V25.734C62.7436 24.1097 62.2022 23.6002 61.2149 23.6002C60.2276 23.6002 59.6543 24.0779 59.6543 25.6703V30.6388H57.2656V19.2369L59.6543 18.0266V22.167C60.0683 21.7211 60.8327 21.3707 61.7882 21.3707C64.1131 21.3707 65.1641 22.9632 65.1641 25.5429V30.6706H62.7436Z" fill="white"/>
<path d="M72.3602 30.6706V30.0655C71.9143 30.5114 71.15 30.8617 70.3219 30.8617C68.6339 30.8617 66.9141 29.8107 66.9141 27.6131C66.9141 25.6066 68.5384 24.5875 70.6085 24.5875C71.4366 24.5875 71.978 24.7786 72.3602 24.9697V24.5238C72.3602 23.8868 71.9143 23.3772 71.0544 23.3772C69.9716 23.3772 69.3983 23.5365 68.5702 23.9823L67.6466 22.3262C68.6976 21.7211 69.5894 21.4026 71.0544 21.4026C73.252 21.4026 74.7489 22.5491 74.7489 24.5875V30.7025L72.3602 30.6706ZM72.3602 26.8487C71.9462 26.594 71.5321 26.4666 70.7041 26.4666C69.8123 26.4666 69.3027 26.8806 69.3027 27.6131C69.3027 28.2501 69.6531 28.8234 70.7041 28.8234C71.4684 28.8234 72.1054 28.4412 72.3602 27.9953V26.8487Z" fill="white"/>
<path d="M82.3285 24.3644C81.9463 24.0141 81.4686 23.7593 80.959 23.7593C80.0354 23.7593 79.3984 24.1415 79.3984 25.7339V30.6705H77.0098V21.5617H79.3984V22.1668C79.8125 21.7209 80.4176 21.3706 81.2775 21.3706C82.0737 21.3706 82.647 21.6891 82.9655 22.0076L82.3285 24.3644Z" fill="white"/>
<path d="M89.1766 30.6705V30.0972C88.7307 30.5112 88.1256 30.8616 87.2657 30.8616C85.3229 30.8616 83.7305 29.3965 83.7305 25.9887C83.7305 23.2815 85.0044 21.3706 87.2657 21.3706C88.0619 21.3706 88.7626 21.6891 89.1766 22.0713V19.2049L91.5653 17.9946V30.6386H89.1766V30.6705ZM89.1766 24.4281C88.8263 23.9185 88.253 23.6319 87.5523 23.6319C86.6287 23.6319 86.1191 24.4281 86.1191 25.9568C86.1191 27.8359 86.7561 28.6003 87.6797 28.6003C88.4122 28.6003 88.7944 28.2818 89.1448 27.8359V24.4281H89.1766Z" fill="white"/>
<path d="M24.5236 21.9122C24.5236 28.696 19.0456 34.174 12.2618 34.174C5.50985 34.174 0 28.696 0 21.9122C0 15.1284 5.50985 9.65039 12.2618 9.65039C19.0456 9.65039 24.5236 15.1284 24.5236 21.9122Z" fill="white"/>
<path d="M13.6306 1.65614C12.3566 1.46505 11.3375 1.46505 10.4457 1.33765C9.36285 1.24211 7.26083 0.955466 6.68755 0C6.68755 0 6.68755 0.0955466 6.6557 0.254791C6.62385 0.605128 6.62385 1.33765 6.84679 2.26127C7.03789 3.05749 7.32453 3.85371 7.73856 4.61808C7.86596 4.87287 8.0252 5.09582 8.18445 5.35061C9.20361 6.8475 10.8279 7.89851 13.2803 8.43995C16.497 9.17247 19.5226 9.68205 21.8794 12.6758V12.644C22.2935 10.9879 20.6692 2.77085 13.6306 1.65614Z" fill="white"/>
<path d="M93.4763 29.1738C93.9859 29.1738 94.4 29.5879 94.4 30.0656C94.4 30.5752 93.9859 30.9574 93.4763 30.9574C92.9668 30.9574 92.5527 30.5433 92.5527 30.0656C92.5527 29.5879 92.9668 29.1738 93.4763 29.1738ZM93.4763 29.3968C93.126 29.3968 92.8394 29.6834 92.8394 30.0656C92.8394 30.4478 93.126 30.7344 93.4763 30.7344C93.8585 30.7344 94.1133 30.4159 94.1133 30.0656C94.1452 29.6834 93.8585 29.3968 93.4763 29.3968ZM93.3808 30.5115H93.126V29.6834C93.1897 29.6834 93.3171 29.6516 93.4763 29.6516C93.6674 29.6516 93.763 29.6834 93.7948 29.7153C93.8585 29.7471 93.8904 29.8108 93.8904 29.9064C93.8904 30.0019 93.8267 30.0656 93.6993 30.0974C93.7948 30.1293 93.8585 30.193 93.8585 30.3204C93.8904 30.4478 93.8904 30.4796 93.9222 30.5115H93.6356C93.6037 30.4796 93.6037 30.4159 93.5719 30.3204C93.5719 30.2248 93.5082 30.193 93.4445 30.193H93.349L93.3808 30.5115ZM93.3808 30.0337H93.4445C93.54 30.0337 93.6037 30.0019 93.6037 29.9382C93.6037 29.8745 93.54 29.8427 93.4445 29.8427C93.4126 29.8427 93.3808 29.8427 93.349 29.8427L93.3808 30.0337Z" fill="white"/>
<path d="M21.3709 31.8169C21.8805 31.8169 22.2945 32.2309 22.2945 32.7087C22.2945 33.2182 21.8805 33.6004 21.3709 33.6004C20.8613 33.6004 20.4473 33.1864 20.4473 32.7087C20.4473 32.1991 20.8613 31.8169 21.3709 31.8169ZM21.3709 32.0398C21.0205 32.0398 20.7339 32.3265 20.7339 32.7087C20.7339 33.0908 21.0205 33.3775 21.3709 33.3775C21.7531 33.3775 22.0079 33.059 22.0079 32.7087C22.0079 32.3583 21.7531 32.0398 21.3709 32.0398ZM21.2435 33.1227H20.9887V32.2946C21.0524 32.2946 21.1798 32.2628 21.339 32.2628C21.5301 32.2628 21.6257 32.2946 21.6575 32.3265C21.7212 32.3583 21.7531 32.422 21.7531 32.5176C21.7531 32.6131 21.6894 32.6768 21.562 32.7087C21.6575 32.7405 21.7212 32.8042 21.7212 32.9316C21.7531 33.059 21.7531 33.0908 21.7849 33.1227H21.4983C21.4664 33.0908 21.4664 33.0271 21.4346 32.9316C21.4346 32.8361 21.3709 32.8042 21.3072 32.8042H21.2116V33.1227H21.2435ZM21.339 32.645C21.4346 32.645 21.4983 32.6131 21.4983 32.5494C21.4983 32.4857 21.4346 32.4539 21.339 32.4539C21.3072 32.4539 21.2753 32.4539 21.2435 32.4539V32.645H21.339Z" fill="white"/>
</svg>
