<svg width="38" height="35" viewBox="0 0 38 35" fill="none" xmlns="http://www.w3.org/2000/svg">
<path d="M16.0974 0C15.6895 0 15.3583 0.331172 15.3583 0.739085C15.3583 1.147 15.6895 1.47823 16.0974 1.47823C16.5053 1.47823 16.8365 1.147 16.8365 0.739085C16.8365 0.331172 16.5053 0 16.0974 0ZM18.7868 0C18.3789 0 18.0477 0.331172 18.0477 0.739085C18.0477 1.147 18.3789 1.47823 18.7868 1.47823C19.1947 1.47823 19.5259 1.147 19.5259 0.739085C19.5259 0.331172 19.1947 0 18.7868 0ZM21.4762 0C21.0683 0 20.7371 0.331172 20.7371 0.739085C20.7371 1.147 21.0683 1.47823 21.4762 1.47823C21.8841 1.47823 22.2153 1.147 22.2153 0.739085C22.2153 0.331172 21.8841 0 21.4762 0ZM10.7186 2.68832C10.3101 2.68832 9.97833 3.01998 9.97833 3.42851C9.97833 3.83703 10.3101 4.16876 10.7186 4.16876C11.1271 4.16876 11.4588 3.83703 11.4588 3.42851C11.4588 3.01998 11.1271 2.68832 10.7186 2.68832ZM26.855 2.68832C26.4465 2.68832 26.1149 3.01998 26.1149 3.42851C26.1149 3.83703 26.4465 4.16876 26.855 4.16876C27.2636 4.16876 27.5953 3.83703 27.5953 3.42851C27.5953 3.01998 27.2636 2.68832 26.855 2.68832ZM13.4079 2.68936C13 2.68936 12.6688 3.02056 12.6688 3.42851C12.6688 3.83646 13 4.16771 13.4079 4.16771C13.8159 4.16771 14.1471 3.83646 14.1471 3.42851C14.1471 3.02056 13.8159 2.68936 13.4079 2.68936ZM24.1656 2.68936C23.7577 2.68936 23.4265 3.02056 23.4265 3.42851C23.4265 3.83646 23.7577 4.16771 24.1656 4.16771C24.5736 4.16771 24.9048 3.83646 24.9048 3.42851C24.9048 3.02056 24.5736 2.68936 24.1656 2.68936ZM16.0974 2.68942C15.6895 2.68942 15.3583 3.02059 15.3583 3.42851C15.3583 3.83642 15.6895 4.16759 16.0974 4.16759C16.5053 4.16759 16.8365 3.83642 16.8365 3.42851C16.8365 3.02059 16.5053 2.68942 16.0974 2.68942ZM18.7868 2.68942C18.3789 2.68942 18.0477 3.02059 18.0477 3.42851C18.0477 3.83642 18.3789 4.16759 18.7868 4.16759C19.1947 4.16759 19.5259 3.83642 19.5259 3.42851C19.5259 3.02059 19.1947 2.68942 18.7868 2.68942ZM21.4762 2.68942C21.0683 2.68942 20.7371 3.02059 20.7371 3.42851C20.7371 3.83642 21.0683 4.16759 21.4762 4.16759C21.8841 4.16759 22.2153 3.83642 22.2153 3.42851C22.2153 3.02059 21.8841 2.68942 21.4762 2.68942ZM8.02915 5.37774C7.62063 5.37774 7.2889 5.7094 7.2889 6.11793C7.2889 6.52645 7.62063 6.85818 8.02915 6.85818C8.43768 6.85818 8.76934 6.52645 8.76934 6.11793C8.76934 5.7094 8.43768 5.37774 8.02915 5.37774ZM29.5445 5.37774C29.1359 5.37774 28.8043 5.7094 28.8043 6.11793C28.8043 6.52645 29.1359 6.85818 29.5445 6.85818C29.953 6.85818 30.2847 6.52645 30.2847 6.11793C30.2847 5.7094 29.953 5.37774 29.5445 5.37774ZM10.7186 5.37872C10.3106 5.37872 9.97931 5.70995 9.97931 6.11793C9.97931 6.52591 10.3106 6.8572 10.7186 6.8572C11.1266 6.8572 11.4578 6.52591 11.4578 6.11793C11.4578 5.70995 11.1266 5.37872 10.7186 5.37872ZM26.855 5.37872C26.4471 5.37872 26.1158 5.70995 26.1158 6.11793C26.1158 6.52591 26.4471 6.8572 26.855 6.8572C27.263 6.8572 27.5943 6.52591 27.5943 6.11793C27.5943 5.70995 27.263 5.37872 26.855 5.37872ZM13.4079 5.37886C13 5.37886 12.6689 5.71009 12.6689 6.118C12.6689 6.52591 13 6.85709 13.4079 6.85709C13.8158 6.85709 14.1471 6.52591 14.1471 6.118C14.1471 5.71009 13.8158 5.37886 13.4079 5.37886ZM16.0974 5.37886C15.6895 5.37886 15.3583 5.71009 15.3583 6.118C15.3583 6.52591 15.6895 6.85709 16.0974 6.85709C16.5053 6.85709 16.8365 6.52591 16.8365 6.118C16.8365 5.71009 16.5053 5.37886 16.0974 5.37886ZM18.7868 5.37886C18.3789 5.37886 18.0477 5.71009 18.0477 6.118C18.0477 6.52591 18.3789 6.85709 18.7868 6.85709C19.1947 6.85709 19.5259 6.52591 19.5259 6.118C19.5259 5.71009 19.1947 5.37886 18.7868 5.37886ZM21.4762 5.37886C21.0683 5.37886 20.7371 5.71009 20.7371 6.118C20.7371 6.52591 21.0683 6.85709 21.4762 6.85709C21.8841 6.85709 22.2153 6.52591 22.2153 6.118C22.2153 5.71009 21.8841 5.37886 21.4762 5.37886ZM24.1656 5.37886C23.7577 5.37886 23.4265 5.71009 23.4265 6.118C23.4265 6.52591 23.7577 6.85709 24.1656 6.85709C24.5735 6.85709 24.9048 6.52591 24.9048 6.118C24.9048 5.71009 24.5735 5.37886 24.1656 5.37886ZM8.02915 8.06822C7.6212 8.06822 7.28995 8.39941 7.28995 8.80736C7.28995 9.21531 7.6212 9.54657 8.02915 9.54657C8.43711 9.54657 8.7683 9.21531 8.7683 8.80736C8.7683 8.39941 8.43711 8.06822 8.02915 8.06822ZM29.5445 8.06822C29.1365 8.06822 28.8053 8.39941 28.8053 8.80736C28.8053 9.21531 29.1365 9.54657 29.5445 9.54657C29.9524 9.54657 30.2837 9.21531 30.2837 8.80736C30.2837 8.39941 29.9524 8.06822 29.5445 8.06822ZM10.7186 8.06826C10.3107 8.06826 9.97943 8.39943 9.97943 8.80734C9.97943 9.21526 10.3107 9.54643 10.7186 9.54643C11.1265 9.54643 11.4577 9.21526 11.4577 8.80734C11.4577 8.39943 11.1265 8.06826 10.7186 8.06826ZM13.4079 8.06826C13 8.06826 12.6689 8.39943 12.6689 8.80734C12.6689 9.21526 13 9.54643 13.4079 9.54643C13.8158 9.54643 14.1471 9.21526 14.1471 8.80734C14.1471 8.39943 13.8158 8.06826 13.4079 8.06826ZM16.0974 8.06826C15.6895 8.06826 15.3583 8.39943 15.3583 8.80734C15.3583 9.21526 15.6895 9.54643 16.0974 9.54643C16.5053 9.54643 16.8365 9.21526 16.8365 8.80734C16.8365 8.39943 16.5053 8.06826 16.0974 8.06826ZM18.7868 8.06826C18.3789 8.06826 18.0477 8.39943 18.0477 8.80734C18.0477 9.21526 18.3789 9.54643 18.7868 9.54643C19.1947 9.54643 19.5259 9.21526 19.5259 8.80734C19.5259 8.39943 19.1947 8.06826 18.7868 8.06826ZM21.4762 8.06826C21.0683 8.06826 20.7371 8.39943 20.7371 8.80734C20.7371 9.21526 21.0683 9.54643 21.4762 9.54643C21.8841 9.54643 22.2153 9.21526 22.2153 8.80734C22.2153 8.39943 21.8841 8.06826 21.4762 8.06826ZM24.1656 8.06826C23.7577 8.06826 23.4265 8.39943 23.4265 8.80734C23.4265 9.21526 23.7577 9.54643 24.1656 9.54643C24.5735 9.54643 24.9048 9.21526 24.9048 8.80734C24.9048 8.39943 24.5735 8.06826 24.1656 8.06826ZM26.855 8.06826C26.4471 8.06826 26.116 8.39943 26.116 8.80734C26.116 9.21526 26.4471 9.54643 26.855 9.54643C27.263 9.54643 27.5942 9.21526 27.5942 8.80734C27.5942 8.39943 27.263 8.06826 26.855 8.06826ZM5.33973 10.7577C4.93182 10.7577 4.60059 11.0889 4.60059 11.4968C4.60059 11.9047 4.93182 12.2359 5.33973 12.2359C5.74764 12.2359 6.07882 11.9047 6.07882 11.4968C6.07882 11.0889 5.74764 10.7577 5.33973 10.7577ZM8.02915 10.7577C7.62124 10.7577 7.29001 11.0889 7.29001 11.4968C7.29001 11.9047 7.62124 12.2359 8.02915 12.2359C8.43707 12.2359 8.76824 11.9047 8.76824 11.4968C8.76824 11.0889 8.43707 10.7577 8.02915 10.7577ZM10.7186 10.7577C10.3107 10.7577 9.97943 11.0889 9.97943 11.4968C9.97943 11.9047 10.3107 12.2359 10.7186 12.2359C11.1265 12.2359 11.4577 11.9047 11.4577 11.4968C11.4577 11.0889 11.1265 10.7577 10.7186 10.7577ZM13.4079 10.7577C13 10.7577 12.6689 11.0889 12.6689 11.4968C12.6689 11.9047 13 12.2359 13.4079 12.2359C13.8158 12.2359 14.1471 11.9047 14.1471 11.4968C14.1471 11.0889 13.8158 10.7577 13.4079 10.7577ZM16.0974 10.7577C15.6895 10.7577 15.3583 11.0889 15.3583 11.4968C15.3583 11.9047 15.6895 12.2359 16.0974 12.2359C16.5053 12.2359 16.8365 11.9047 16.8365 11.4968C16.8365 11.0889 16.5053 10.7577 16.0974 10.7577ZM18.7868 10.7577C18.3789 10.7577 18.0477 11.0889 18.0477 11.4968C18.0477 11.9047 18.3789 12.2359 18.7868 12.2359C19.1947 12.2359 19.5259 11.9047 19.5259 11.4968C19.5259 11.0889 19.1947 10.7577 18.7868 10.7577ZM21.4762 10.7577C21.0683 10.7577 20.7371 11.0889 20.7371 11.4968C20.7371 11.9047 21.0683 12.2359 21.4762 12.2359C21.8841 12.2359 22.2153 11.9047 22.2153 11.4968C22.2153 11.0889 21.8841 10.7577 21.4762 10.7577ZM24.1656 10.7577C23.7577 10.7577 23.4265 11.0889 23.4265 11.4968C23.4265 11.9047 23.7577 12.2359 24.1656 12.2359C24.5735 12.2359 24.9048 11.9047 24.9048 11.4968C24.9048 11.0889 24.5735 10.7577 24.1656 10.7577ZM26.855 10.7577C26.4471 10.7577 26.116 11.0889 26.116 11.4968C26.116 11.9047 26.4471 12.2359 26.855 12.2359C27.263 12.2359 27.5942 11.9047 27.5942 11.4968C27.5942 11.0889 27.263 10.7577 26.855 10.7577ZM29.5445 10.7577C29.1366 10.7577 28.8054 11.0889 28.8054 11.4968C28.8054 11.9047 29.1366 12.2359 29.5445 12.2359C29.9524 12.2359 30.2836 11.9047 30.2836 11.4968C30.2836 11.0889 29.9524 10.7577 29.5445 10.7577ZM32.2339 10.7577C31.826 10.7577 31.4948 11.0889 31.4948 11.4968C31.4948 11.9047 31.826 12.2359 32.2339 12.2359C32.6418 12.2359 32.973 11.9047 32.973 11.4968C32.973 11.0889 32.6418 10.7577 32.2339 10.7577ZM5.33973 13.4471C4.93182 13.4471 4.60059 13.7783 4.60059 14.1862C4.60059 14.5941 4.93182 14.9253 5.33973 14.9253C5.74764 14.9253 6.07882 14.5941 6.07882 14.1862C6.07882 13.7783 5.74764 13.4471 5.33973 13.4471ZM8.02915 13.4471C7.62124 13.4471 7.29001 13.7783 7.29001 14.1862C7.29001 14.5941 7.62124 14.9253 8.02915 14.9253C8.43707 14.9253 8.76824 14.5941 8.76824 14.1862C8.76824 13.7783 8.43707 13.4471 8.02915 13.4471ZM10.7186 13.4471C10.3107 13.4471 9.97943 13.7783 9.97943 14.1862C9.97943 14.5941 10.3107 14.9253 10.7186 14.9253C11.1265 14.9253 11.4577 14.5941 11.4577 14.1862C11.4577 13.7783 11.1265 13.4471 10.7186 13.4471ZM13.4079 13.4471C13 13.4471 12.6689 13.7783 12.6689 14.1862C12.6689 14.5941 13 14.9253 13.4079 14.9253C13.8158 14.9253 14.1471 14.5941 14.1471 14.1862C14.1471 13.7783 13.8158 13.4471 13.4079 13.4471ZM16.0974 13.4471C15.6895 13.4471 15.3583 13.7783 15.3583 14.1862C15.3583 14.5941 15.6895 14.9253 16.0974 14.9253C16.5053 14.9253 16.8365 14.5941 16.8365 14.1862C16.8365 13.7783 16.5053 13.4471 16.0974 13.4471ZM18.7868 13.4471C18.3789 13.4471 18.0477 13.7783 18.0477 14.1862C18.0477 14.5941 18.3789 14.9253 18.7868 14.9253C19.1947 14.9253 19.5259 14.5941 19.5259 14.1862C19.5259 13.7783 19.1947 13.4471 18.7868 13.4471ZM21.4762 13.4471C21.0683 13.4471 20.7371 13.7783 20.7371 14.1862C20.7371 14.5941 21.0683 14.9253 21.4762 14.9253C21.8841 14.9253 22.2153 14.5941 22.2153 14.1862C22.2153 13.7783 21.8841 13.4471 21.4762 13.4471ZM24.1656 13.4471C23.7577 13.4471 23.4265 13.7783 23.4265 14.1862C23.4265 14.5941 23.7577 14.9253 24.1656 14.9253C24.5735 14.9253 24.9048 14.5941 24.9048 14.1862C24.9048 13.7783 24.5735 13.4471 24.1656 13.4471ZM26.855 13.4471C26.4471 13.4471 26.116 13.7783 26.116 14.1862C26.116 14.5941 26.4471 14.9253 26.855 14.9253C27.263 14.9253 27.5942 14.5941 27.5942 14.1862C27.5942 13.7783 27.263 13.4471 26.855 13.4471ZM29.5445 13.4471C29.1366 13.4471 28.8054 13.7783 28.8054 14.1862C28.8054 14.5941 29.1366 14.9253 29.5445 14.9253C29.9524 14.9253 30.2836 14.5941 30.2836 14.1862C30.2836 13.7783 29.9524 13.4471 29.5445 13.4471ZM32.2339 13.4471C31.826 13.4471 31.4948 13.7783 31.4948 14.1862C31.4948 14.5941 31.826 14.9253 32.2339 14.9253C32.6418 14.9253 32.973 14.5941 32.973 14.1862C32.973 13.7783 32.6418 13.4471 32.2339 13.4471ZM5.33973 16.1365C4.93182 16.1365 4.60059 16.4677 4.60059 16.8756C4.60059 17.2835 4.93182 17.6147 5.33973 17.6147C5.74764 17.6147 6.07882 17.2835 6.07882 16.8756C6.07882 16.4677 5.74764 16.1365 5.33973 16.1365ZM8.02915 16.1365C7.62124 16.1365 7.29001 16.4677 7.29001 16.8756C7.29001 17.2835 7.62124 17.6147 8.02915 17.6147C8.43707 17.6147 8.76824 17.2835 8.76824 16.8756C8.76824 16.4677 8.43707 16.1365 8.02915 16.1365ZM10.7186 16.1365C10.3107 16.1365 9.97943 16.4677 9.97943 16.8756C9.97943 17.2835 10.3107 17.6147 10.7186 17.6147C11.1265 17.6147 11.4577 17.2835 11.4577 16.8756C11.4577 16.4677 11.1265 16.1365 10.7186 16.1365ZM13.4079 16.1365C13 16.1365 12.6689 16.4677 12.6689 16.8756C12.6689 17.2835 13 17.6147 13.4079 17.6147C13.8158 17.6147 14.1471 17.2835 14.1471 16.8756C14.1471 16.4677 13.8158 16.1365 13.4079 16.1365ZM16.0974 16.1365C15.6895 16.1365 15.3583 16.4677 15.3583 16.8756C15.3583 17.2835 15.6895 17.6147 16.0974 17.6147C16.5053 17.6147 16.8365 17.2835 16.8365 16.8756C16.8365 16.4677 16.5053 16.1365 16.0974 16.1365ZM18.7868 16.1365C18.3789 16.1365 18.0477 16.4677 18.0477 16.8756C18.0477 17.2835 18.3789 17.6147 18.7868 17.6147C19.1947 17.6147 19.5259 17.2835 19.5259 16.8756C19.5259 16.4677 19.1947 16.1365 18.7868 16.1365ZM21.4762 16.1365C21.0683 16.1365 20.7371 16.4677 20.7371 16.8756C20.7371 17.2835 21.0683 17.6147 21.4762 17.6147C21.8841 17.6147 22.2153 17.2835 22.2153 16.8756C22.2153 16.4677 21.8841 16.1365 21.4762 16.1365ZM24.1656 16.1365C23.7577 16.1365 23.4265 16.4677 23.4265 16.8756C23.4265 17.2835 23.7577 17.6147 24.1656 17.6147C24.5735 17.6147 24.9048 17.2835 24.9048 16.8756C24.9048 16.4677 24.5735 16.1365 24.1656 16.1365ZM26.855 16.1365C26.4471 16.1365 26.116 16.4677 26.116 16.8756C26.116 17.2835 26.4471 17.6147 26.855 17.6147C27.263 17.6147 27.5942 17.2835 27.5942 16.8756C27.5942 16.4677 27.263 16.1365 26.855 16.1365ZM29.5445 16.1365C29.1366 16.1365 28.8054 16.4677 28.8054 16.8756C28.8054 17.2835 29.1366 17.6147 29.5445 17.6147C29.9524 17.6147 30.2836 17.2835 30.2836 16.8756C30.2836 16.4677 29.9524 16.1365 29.5445 16.1365ZM32.2339 16.1365C31.826 16.1365 31.4948 16.4677 31.4948 16.8756C31.4948 17.2835 31.826 17.6147 32.2339 17.6147C32.6418 17.6147 32.973 17.2835 32.973 16.8756C32.973 16.4677 32.6418 16.1365 32.2339 16.1365ZM8.02915 18.8258C7.6212 18.8258 7.28995 19.1571 7.28995 19.565C7.28995 19.973 7.6212 20.3042 8.02915 20.3042C8.43711 20.3042 8.7683 19.973 8.7683 19.565C8.7683 19.1571 8.43711 18.8258 8.02915 18.8258ZM29.5445 18.8258C29.1365 18.8258 28.8053 19.1571 28.8053 19.565C28.8053 19.973 29.1365 20.3042 29.5445 20.3042C29.9524 20.3042 30.2837 19.973 30.2837 19.565C30.2837 19.1571 29.9524 18.8258 29.5445 18.8258ZM10.7186 18.8259C10.3107 18.8259 9.97943 19.1571 9.97943 19.565C9.97943 19.9729 10.3107 20.3041 10.7186 20.3041C11.1265 20.3041 11.4577 19.9729 11.4577 19.565C11.4577 19.1571 11.1265 18.8259 10.7186 18.8259ZM13.4079 18.8259C13 18.8259 12.6689 19.1571 12.6689 19.565C12.6689 19.9729 13 20.3041 13.4079 20.3041C13.8158 20.3041 14.1471 19.9729 14.1471 19.565C14.1471 19.1571 13.8158 18.8259 13.4079 18.8259ZM16.0974 18.8259C15.6895 18.8259 15.3583 19.1571 15.3583 19.565C15.3583 19.9729 15.6895 20.3041 16.0974 20.3041C16.5053 20.3041 16.8365 19.9729 16.8365 19.565C16.8365 19.1571 16.5053 18.8259 16.0974 18.8259ZM18.7868 18.8259C18.3789 18.8259 18.0477 19.1571 18.0477 19.565C18.0477 19.9729 18.3789 20.3041 18.7868 20.3041C19.1947 20.3041 19.5259 19.9729 19.5259 19.565C19.5259 19.1571 19.1947 18.8259 18.7868 18.8259ZM21.4762 18.8259C21.0683 18.8259 20.7371 19.1571 20.7371 19.565C20.7371 19.9729 21.0683 20.3041 21.4762 20.3041C21.8841 20.3041 22.2153 19.9729 22.2153 19.565C22.2153 19.1571 21.8841 18.8259 21.4762 18.8259ZM24.1656 18.8259C23.7577 18.8259 23.4265 19.1571 23.4265 19.565C23.4265 19.9729 23.7577 20.3041 24.1656 20.3041C24.5735 20.3041 24.9048 19.9729 24.9048 19.565C24.9048 19.1571 24.5735 18.8259 24.1656 18.8259ZM26.855 18.8259C26.4471 18.8259 26.116 19.1571 26.116 19.565C26.116 19.9729 26.4471 20.3041 26.855 20.3041C27.263 20.3041 27.5942 19.9729 27.5942 19.565C27.5942 19.1571 27.263 18.8259 26.855 18.8259ZM8.02915 21.5142C7.62063 21.5142 7.2889 21.8459 7.2889 22.2544C7.2889 22.663 7.62063 22.9946 8.02915 22.9946C8.43768 22.9946 8.76934 22.663 8.76934 22.2544C8.76934 21.8459 8.43768 21.5142 8.02915 21.5142ZM29.5445 21.5142C29.1359 21.5142 28.8043 21.8459 28.8043 22.2544C28.8043 22.663 29.1359 22.9946 29.5445 22.9946C29.953 22.9946 30.2847 22.663 30.2847 22.2544C30.2847 21.8459 29.953 21.5142 29.5445 21.5142ZM10.7186 21.5152C10.3106 21.5152 9.97931 21.8465 9.97931 22.2544C9.97931 22.6624 10.3106 22.9936 10.7186 22.9936C11.1266 22.9936 11.4578 22.6624 11.4578 22.2544C11.4578 21.8465 11.1266 21.5152 10.7186 21.5152ZM26.855 21.5152C26.4471 21.5152 26.1158 21.8465 26.1158 22.2544C26.1158 22.6624 26.4471 22.9936 26.855 22.9936C27.263 22.9936 27.5943 22.6624 27.5943 22.2544C27.5943 21.8465 27.263 21.5152 26.855 21.5152ZM13.4079 21.5154C13 21.5154 12.6689 21.8465 12.6689 22.2544C12.6689 22.6624 13 22.9936 13.4079 22.9936C13.8158 22.9936 14.1471 22.6624 14.1471 22.2544C14.1471 21.8465 13.8158 21.5154 13.4079 21.5154ZM16.0974 21.5154C15.6895 21.5154 15.3583 21.8465 15.3583 22.2544C15.3583 22.6624 15.6895 22.9936 16.0974 22.9936C16.5053 22.9936 16.8365 22.6624 16.8365 22.2544C16.8365 21.8465 16.5053 21.5154 16.0974 21.5154ZM18.7868 21.5154C18.3789 21.5154 18.0477 21.8465 18.0477 22.2544C18.0477 22.6624 18.3789 22.9936 18.7868 22.9936C19.1947 22.9936 19.5259 22.6624 19.5259 22.2544C19.5259 21.8465 19.1947 21.5154 18.7868 21.5154ZM21.4762 21.5154C21.0683 21.5154 20.7371 21.8465 20.7371 22.2544C20.7371 22.6624 21.0683 22.9936 21.4762 22.9936C21.8841 22.9936 22.2153 22.6624 22.2153 22.2544C22.2153 21.8465 21.8841 21.5154 21.4762 21.5154ZM24.1656 21.5154C23.7577 21.5154 23.4265 21.8465 23.4265 22.2544C23.4265 22.6624 23.7577 22.9936 24.1656 22.9936C24.5735 22.9936 24.9048 22.6624 24.9048 22.2544C24.9048 21.8465 24.5735 21.5154 24.1656 21.5154ZM10.7186 24.2036C10.3101 24.2036 9.97833 24.5353 9.97833 24.9439C9.97833 25.3524 10.3101 25.6841 10.7186 25.6841C11.1271 25.6841 11.4588 25.3524 11.4588 24.9439C11.4588 24.5353 11.1271 24.2036 10.7186 24.2036ZM26.855 24.2036C26.4465 24.2036 26.1149 24.5353 26.1149 24.9439C26.1149 25.3524 26.4465 25.6841 26.855 25.6841C27.2636 25.6841 27.5953 25.3524 27.5953 24.9439C27.5953 24.5353 27.2636 24.2036 26.855 24.2036ZM13.4079 24.2047C13 24.2047 12.6688 24.5359 12.6688 24.9439C12.6688 25.3518 13 25.683 13.4079 25.683C13.8159 25.683 14.1471 25.3518 14.1471 24.9439C14.1471 24.5359 13.8159 24.2047 13.4079 24.2047ZM24.1656 24.2047C23.7577 24.2047 23.4265 24.5359 23.4265 24.9439C23.4265 25.3518 23.7577 25.683 24.1656 25.683C24.5736 25.683 24.9048 25.3518 24.9048 24.9439C24.9048 24.5359 24.5736 24.2047 24.1656 24.2047ZM16.0974 24.2047C15.6895 24.2047 15.3583 24.5359 15.3583 24.9439C15.3583 25.3518 15.6895 25.6829 16.0974 25.6829C16.5053 25.6829 16.8365 25.3518 16.8365 24.9439C16.8365 24.5359 16.5053 24.2047 16.0974 24.2047ZM18.7868 24.2047C18.3789 24.2047 18.0477 24.5359 18.0477 24.9439C18.0477 25.3518 18.3789 25.6829 18.7868 25.6829C19.1947 25.6829 19.5259 25.3518 19.5259 24.9439C19.5259 24.5359 19.1947 24.2047 18.7868 24.2047ZM21.4762 24.2047C21.0683 24.2047 20.7371 24.5359 20.7371 24.9439C20.7371 25.3518 21.0683 25.6829 21.4762 25.6829C21.8841 25.6829 22.2153 25.3518 22.2153 24.9439C22.2153 24.5359 21.8841 24.2047 21.4762 24.2047ZM16.099 26.8939C15.6913 26.8939 15.3602 27.2249 15.3602 27.6326C15.3602 28.0403 15.6913 28.3713 16.099 28.3713C16.5067 28.3713 16.8377 28.0403 16.8377 27.6326C16.8377 27.2249 16.5067 26.8939 16.099 26.8939ZM18.7868 26.8942C18.3789 26.8942 18.0477 27.2254 18.0477 27.6333C18.0477 28.0412 18.3789 28.3724 18.7868 28.3724C19.1947 28.3724 19.5259 28.0412 19.5259 27.6333C19.5259 27.2254 19.1947 26.8942 18.7868 26.8942ZM21.4762 26.8942C21.0683 26.8942 20.7371 27.2254 20.7371 27.6333C20.7371 28.0412 21.0683 28.3724 21.4762 28.3724C21.8841 28.3724 22.2153 28.0412 22.2153 27.6333C22.2153 27.2254 21.8841 26.8942 21.4762 26.8942Z" fill="white"/>
<path d="M35.9903 32.1425C35.9692 32.1424 35.9476 32.1429 35.926 32.1433H35.9215C35.3813 32.1582 34.8192 32.3486 34.4946 32.6425C34.4173 32.7125 34.3509 32.792 34.2959 32.876C34.1592 33.0846 34.0877 33.3251 34.0877 33.5669C34.0877 33.5913 34.0885 33.6157 34.0898 33.6402C34.1072 33.9577 34.2413 34.2632 34.4946 34.4925C34.7996 34.7686 35.2327 34.9347 35.7095 34.9814C36.1656 35.0262 36.634 34.9532 36.9544 34.7719C37.271 34.5928 37.4905 34.2913 37.5658 33.9601C37.5673 33.9536 37.5683 33.9461 37.5699 33.9395L37.199 33.9395C37.1398 34.1361 36.9407 34.3614 36.7519 34.4516C36.5767 34.5354 36.3504 34.6242 35.9894 34.6193C35.9832 34.6192 35.9315 34.6176 35.9112 34.6164C35.8499 34.6126 35.7898 34.6052 35.7307 34.5924C35.5212 34.547 35.3291 34.4528 35.1859 34.3109C34.9949 34.1215 34.8941 33.8526 34.8941 33.567C34.8941 33.2805 34.9947 33.0123 35.1859 32.821C35.3794 32.6275 35.6657 32.528 35.9654 32.5226H36.0205C36.3521 32.5276 36.5449 32.5714 36.7929 32.6968C36.9493 32.776 37.1692 33.004 37.2156 33.2362H37.5588V32.2989H37.2023V32.3995C37.2023 32.4169 37.1932 32.4363 37.1758 32.4463C37.1593 32.4554 37.1352 32.4566 37.1038 32.4405C36.9496 32.3613 36.5421 32.1433 35.9903 32.1425ZM1.48345 32.1466C1.16956 32.145 0.811981 32.2079 0.510947 32.342C0.230807 32.4668 0 32.6686 0 33.0043C0 33.3049 0.192108 33.4816 0.186106 33.4758C0.268794 33.5508 0.399916 33.6799 0.742889 33.754C0.895542 33.787 1.22248 33.8376 1.55002 33.8745C1.87276 33.9108 2.19276 33.9407 2.32298 33.9725C2.42703 33.998 2.59812 34.0355 2.59812 34.2288C2.59812 34.4238 2.41617 34.4818 2.38391 34.4946C2.35146 34.5075 2.13366 34.6072 1.73907 34.6072C1.44825 34.6072 1.09981 34.5202 0.972008 34.4767C0.825294 34.4269 0.672938 34.353 0.528987 34.1771C0.493486 34.1337 0.438297 34.0144 0.438297 33.8964H0.0794616V34.8936H0.475849V34.7587C0.475849 34.7454 0.496543 34.6809 0.561324 34.7119C0.64332 34.7512 0.886377 34.8452 1.14179 34.8986C1.34902 34.9419 1.48345 34.9727 1.74134 34.9727C2.16402 34.9727 2.39072 34.9044 2.54658 34.8597C2.69681 34.8166 2.8791 34.7401 3.02525 34.6229C3.10511 34.5589 3.28075 34.3956 3.28075 34.0984C3.28075 33.8123 3.12913 33.6348 3.07397 33.5818C2.99879 33.5096 2.91196 33.4514 2.81822 33.4075C2.736 33.3691 2.608 33.3231 2.50325 33.2983C2.29741 33.2494 1.83702 33.1848 1.61783 33.1629C1.38651 33.1397 0.984509 33.1045 0.825541 33.0553C0.776405 33.04 0.676313 32.9923 0.676313 32.8781C0.676313 32.7969 0.723386 32.7266 0.811981 32.6694C0.951721 32.5793 1.24248 32.5266 1.54002 32.5266C1.895 32.5266 2.194 32.6044 2.38391 32.6897C2.4501 32.7194 2.52453 32.7614 2.58529 32.8106C2.65375 32.8661 2.74794 32.9812 2.78281 33.1414H3.10336V32.2732H2.74673V32.3739C2.74673 32.4074 2.71312 32.4484 2.64843 32.4148C2.48796 32.3317 2.03785 32.1494 1.48345 32.1466ZM5.77075 32.1466C5.21097 32.1466 4.6143 32.3399 4.2762 32.6467C4.00712 32.8908 3.86889 33.2312 3.86889 33.5711C3.86889 33.9146 4.00332 34.2496 4.2762 34.4967C4.63922 34.8254 5.18468 34.9996 5.77075 34.9996C6.36 34.9996 6.91634 34.8258 7.26905 34.4967C7.53109 34.2522 7.67041 33.901 7.67041 33.5711C7.67041 33.2295 7.53957 32.8942 7.26905 32.6483C6.8901 32.3039 6.39418 32.1466 5.77075 32.1466ZM29.3102 32.1466C28.9968 32.145 28.6392 32.2079 28.3382 32.342C28.0579 32.4669 27.8269 32.6686 27.8269 33.0043C27.8269 33.3048 28.0191 33.475 28.0132 33.4688C28.0956 33.5445 28.2268 33.6646 28.57 33.7383C28.7226 33.771 29.0531 33.8169 29.3805 33.8534C29.7032 33.8893 30.0197 33.9308 30.1501 33.9622C30.2542 33.9873 30.4249 34.0355 30.4249 34.2288C30.4249 34.4238 30.2432 34.4813 30.2114 34.4946C30.1786 34.5082 29.9609 34.6072 29.5664 34.6072C29.2754 34.6072 28.9269 34.5203 28.799 34.4764C28.6524 34.4261 28.4996 34.353 28.3559 34.1771C28.3203 34.1334 28.2653 34.014 28.2653 33.8964H27.9068V34.8936H28.303V34.7587C28.303 34.7454 28.3237 34.6809 28.3878 34.7119C28.4704 34.7519 28.7132 34.8452 28.9691 34.8986C29.1764 34.9419 29.3102 34.9723 29.5685 34.9723C29.9911 34.9723 30.2175 34.904 30.3736 34.8597C30.5244 34.8169 30.706 34.7401 30.8526 34.6229C30.9323 34.5592 31.1075 34.3956 31.1075 34.0984C31.1075 33.8123 30.9561 33.6464 30.901 33.5934C30.8261 33.5213 30.7391 33.4676 30.6452 33.4237C30.5628 33.3852 30.4432 33.3483 30.3389 33.3239C30.1326 33.2756 29.6636 33.2092 29.4447 33.1873C29.2135 33.1641 28.8126 33.119 28.6536 33.0697C28.6042 33.0544 28.5038 32.9923 28.5038 32.8781C28.5038 32.7969 28.5505 32.7266 28.6391 32.6694C28.779 32.5793 29.0697 32.5266 29.3669 32.5266C29.722 32.5266 30.0205 32.6044 30.2114 32.6897C30.2759 32.7216 30.3517 32.7614 30.4126 32.8106C30.4808 32.8658 30.5748 32.9812 30.6096 33.1414H30.93V32.2733H30.574V32.3739C30.574 32.4074 30.5404 32.4484 30.475 32.4148C30.3147 32.3327 29.8644 32.1495 29.3102 32.1466ZM31.7919 32.3072V32.6243H32.1287C32.2728 32.6243 32.2646 32.7362 32.2646 32.7362L32.2605 34.4129C32.2605 34.4129 32.2684 34.5248 32.124 34.5248H31.7873V34.8415H33.5545V34.5248H33.2015C33.0571 34.5248 33.0649 34.4122 33.0649 34.4122L33.0608 32.7362C33.0608 32.7362 33.0526 32.6243 33.1967 32.6243H33.5503V32.3072H31.7919ZM12.32 32.308V32.623H12.6309C12.7662 32.623 12.8532 32.709 12.9047 32.7641C12.9457 32.808 13.8344 33.8175 13.8562 33.8454C13.8779 33.8731 13.8779 33.8777 13.8779 33.8901V34.4064C13.8779 34.533 13.7446 34.5247 13.7446 34.5247H13.405V34.8414H15.1419V34.5239H14.7801C14.7801 34.5239 14.6523 34.5328 14.6523 34.4122V33.9008C14.6523 33.9008 14.6509 33.8585 14.6647 33.8426C14.6887 33.8148 15.5889 32.7896 15.6286 32.7439C15.7153 32.6441 15.7625 32.623 15.8786 32.623H16.198V32.3081H14.7669V32.623H14.9813C15.045 32.623 15.0625 32.6873 15.0349 32.7216L14.4289 33.4302H14.4096L13.8177 32.7215C13.7744 32.6686 13.8094 32.623 13.8562 32.623H14.0665V32.308H12.32ZM19.7257 32.308L18.091 32.308V32.6239H18.3679C18.5679 32.6239 18.582 32.7352 18.582 32.8321V34.3145C18.582 34.4043 18.5878 34.5247 18.4594 34.5247H18.1163V34.8414H19.4935V34.5247H19.2232C19.0812 34.5247 19.0733 34.461 19.0708 34.3207L19.0717 32.7071H19.0841L20.0474 34.8423H20.5901L21.5451 32.7071H21.5579L21.5695 34.3207C21.5666 34.461 21.5592 34.5247 21.4176 34.5247H21.1468V34.8414H22.8159V34.5247H22.4728C22.3449 34.5247 22.3502 34.4043 22.3502 34.3145L22.342 32.8321C22.342 32.7352 22.3556 32.6239 22.556 32.6239H22.8329V32.308L21.228 32.308L20.4759 33.9647L19.7257 32.308ZM8.06096 32.308V32.6239H8.33807C8.53781 32.6239 8.55215 32.7352 8.55215 32.8321V34.3145C8.55215 34.4043 8.55789 34.5247 8.42955 34.5247H8.08624V34.8414H9.54938V34.5247H9.19269C9.05091 34.5247 9.04331 34.461 9.04083 34.3207V33.0515L11.0472 34.8414H11.5573L11.5302 32.8197C11.5339 32.6731 11.5421 32.623 11.6934 32.623H12.0137V32.308H10.5247V32.623H10.8525C11.0011 32.623 11.0276 32.6826 11.0288 32.8197L11.0472 33.8778L9.30633 32.308H8.06096ZM23.3189 32.308V32.623H23.6273C23.7763 32.623 23.8028 32.6826 23.8041 32.8197L23.8045 34.0433C23.8045 34.8563 24.6477 35 25.3713 35C26.1094 35 26.8235 34.8489 26.8235 34.0686L26.8181 32.7468C26.826 32.6562 26.8545 32.623 26.9775 32.623H27.2979V32.308H25.8234V32.623H26.1165C26.2593 32.623 26.2891 32.6785 26.2924 32.8043L26.2912 34.0798C26.2912 34.3741 26.1839 34.6958 25.3713 34.6958C24.6109 34.6958 24.6432 34.1712 24.6432 34.0826V32.8027C24.6473 32.6694 24.661 32.623 24.8063 32.623H25.118V32.308H23.3189ZM5.77075 32.5179C6.07832 32.5179 6.37467 32.6301 6.57316 32.8251C6.76706 33.0155 6.86689 33.2816 6.86689 33.571C6.86689 33.8703 6.77394 34.1141 6.57316 34.3145C6.3725 34.5147 6.08451 34.6229 5.77075 34.6229C5.46284 34.6229 5.16761 34.5132 4.96742 34.3145C4.77635 34.1248 4.67529 33.8562 4.67529 33.571C4.67529 33.2846 4.77628 33.0159 4.96742 32.8251C5.16598 32.6268 5.46284 32.5179 5.77075 32.5179Z" fill="white"/>
</svg>
