<svg width="90" height="35" viewBox="0 0 90 35" fill="none" xmlns="http://www.w3.org/2000/svg">
<path fill-rule="evenodd" clip-rule="evenodd" d="M18.8443 34.9993C9.73065 34.9993 4.9999 32.9897 2.16272 28.2537C0.565946 25.5314 0 20.6379 0 17.4986C0 14.3593 0.565946 9.4732 2.16272 6.74454C4.9999 2.00847 9.73065 0 18.8443 0C27.9579 0 32.6929 2.00847 35.5248 6.74454C37.1205 9.4732 37.6864 14.3593 37.6864 17.4986C37.6864 20.6379 37.1205 25.5261 35.5248 28.2537C32.6929 32.9897 27.9569 34.9993 18.8443 34.9993ZM23.424 27.3909C22.3931 27.3909 20.8996 26.9271 20.1804 25.2793L15.6507 14.3125C14.671 11.8412 16.5784 9.52533 18.7911 9.52533C19.8209 9.52533 21.3134 9.99021 22.0336 11.637L26.5643 22.6017C27.543 25.0729 25.6378 27.3898 23.424 27.3898V27.3909ZM14.3114 27.3909C13.2827 27.3909 11.7891 26.9271 11.0679 25.2793L6.5371 14.3125C5.55946 11.8412 7.46367 9.52533 9.67746 9.52533C10.7083 9.52533 12.2008 9.99021 12.9221 11.637L17.4518 22.6017C18.4305 25.0729 16.5262 27.3898 14.3114 27.3898V27.3909ZM29.1122 19.106C28.0824 19.106 26.5888 18.6411 25.8686 16.9933L24.7633 14.3135C23.7846 11.8423 25.6878 9.5264 27.9015 9.5264C28.9313 9.5264 30.4249 9.99128 31.1451 11.6381L32.2536 14.3178C33.2333 16.7869 31.3259 19.1049 29.1122 19.1049V19.106Z" fill="white"/>
<path d="M44.539 11.2508L45.9772 5.67329L47.4155 11.2508H49.2474L51.5601 2.86058H49.7006L48.3814 8.11579C48.3611 8.22353 48.3348 8.33007 48.3027 8.43493V8.45195C48.3027 8.43919 48.2963 8.42642 48.2942 8.41472C48.2607 8.30622 48.234 8.19572 48.2144 8.08387L46.8634 2.85632H45.0953L43.7422 8.09558C43.7222 8.2077 43.6956 8.31854 43.6624 8.42748C43.6604 8.43683 43.6579 8.44606 43.6549 8.45514C43.6537 8.44688 43.6519 8.43871 43.6496 8.43067C43.6164 8.32247 43.5897 8.21234 43.5698 8.10089L42.2539 2.86058H40.3933L42.7071 11.2508H44.539Z" fill="white"/>
<path d="M52.431 11.2508L53.2469 9.11791H56.2373L57.0532 11.2508H58.9468L55.583 2.93293L55.5543 2.8606H53.9352L50.5427 11.2508H52.431ZM54.5469 5.70841L54.7416 5.14459L54.848 5.45097L55.6277 7.51263H53.8597L54.5469 5.70841Z" fill="white"/>
<path d="M66.0978 5.28395C66.0978 3.7893 64.9414 2.8606 63.0798 2.8606H59.4788V11.2508H61.2468V7.94028H62.3723L64.2606 11.2508H66.2818L64.2829 7.7456C65.4872 7.26689 66.0978 6.43924 66.0978 5.28395ZM64.3287 5.3999C64.3287 6.03819 63.9031 6.35733 63.0798 6.35733H61.2468V4.44248H63.084C63.9085 4.44248 64.3287 4.76481 64.3287 5.3999Z" fill="white"/>
<path d="M68.9545 5.74458L68.9736 5.77968C69.0097 5.84834 69.0498 5.91477 69.0938 5.97862L72.5321 11.253H74.2714V2.8606H72.5512V8.33495L72.5299 8.29772C72.4939 8.22906 72.4537 8.16263 72.4097 8.09878L68.9715 2.8606H67.2322V11.2508H68.9534L68.9545 5.74458Z" fill="white"/>
<path d="M81.1606 7.719V6.11372H77.3958V4.46588H81.4872V2.8606H75.6267V11.2508H81.5223V9.64662H77.3958V7.719H81.1606Z" fill="white"/>
<path d="M87.403 7.7456C88.6073 7.26689 89.2115 6.43924 89.2115 5.28395C89.2115 3.7893 88.0551 2.8606 86.1945 2.8606H82.5989V11.2508H84.3669V7.94028H85.4914L87.3807 11.2508H89.4019L87.403 7.7456ZM87.4445 5.3999C87.4445 6.03819 87.0243 6.35733 86.1956 6.35733H84.3669V4.44248H86.1999C87.0286 4.44248 87.4445 4.76481 87.4445 5.3999Z" fill="white"/>
<path d="M46.2497 19.5113L43.7263 13.222H41.9136V21.6134H43.6359V17.2496L43.8125 17.8007L45.439 21.6134H47.0592L48.69 17.7911L48.8624 17.2496V21.6134H50.5847V13.222H48.7719L46.2497 19.5113Z" fill="white"/>
<path d="M51.8472 13.222V18.4092C51.8472 20.4549 53.2056 21.7761 55.3077 21.7761C57.4098 21.7761 58.7683 20.4549 58.7683 18.4092V13.222H57.0003V18.257C57.0003 19.4432 56.3832 20.124 55.3077 20.124C54.2322 20.124 53.6152 19.4432 53.6152 18.257V13.222H51.8472Z" fill="white"/>
<path d="M63.108 20.1943C62.008 20.1943 61.3878 19.606 61.157 18.3411L61.1293 18.1901L59.5613 18.9879L59.5804 19.0741C59.9421 20.7911 61.2325 21.7762 63.1197 21.7762C65.1931 21.7762 66.2771 20.4581 66.2771 19.1549C66.2771 17.7433 65.426 16.9358 63.5165 16.5359C62.1655 16.2582 61.6378 15.9337 61.6378 15.3774C61.6378 14.821 62.3112 14.6412 62.8878 14.6412C63.7857 14.6412 64.3963 15.1008 64.7027 16.0093L64.7473 16.1412L66.1686 15.3242L66.1356 15.2337C65.6111 13.7902 64.5314 13.0593 62.9272 13.0593C61.1432 13.0593 59.9485 14.0051 59.9485 15.4125C59.9485 16.722 60.9134 17.655 62.5931 17.9731C63.9974 18.2592 64.5186 18.5954 64.5186 19.2135C64.509 19.8092 63.9591 20.1943 63.108 20.1943Z" fill="white"/>
<path d="M69.0156 13.222H67.2476V21.6123H69.0156V13.222Z" fill="white"/>
<path d="M77.8776 19.5337L77.9382 19.4411L76.5414 18.4379L76.4797 18.5528C75.9191 19.5954 75.1213 20.1241 74.1096 20.1241C72.6553 20.1241 71.6011 18.9858 71.6011 17.4177C71.6011 15.8497 72.6553 14.7114 74.1096 14.7114C75.1521 14.7114 75.8755 15.2018 76.384 16.255L76.4436 16.3784L77.8776 15.3454L77.8393 15.2603C77.2212 13.8774 75.8446 13.0593 74.1564 13.0593C71.6373 13.0593 69.8086 14.8923 69.8086 17.4209C69.8086 19.9868 71.5724 21.7825 74.0979 21.7825C76.0085 21.7762 76.9308 20.957 77.8776 19.5337Z" fill="white"/>
<path d="M44.8374 28.8728H47.4458C47.3256 29.4451 46.8937 30.4855 45.3448 30.4855C43.9225 30.4855 42.93 29.3728 42.93 27.7792C42.93 26.1856 43.9938 25.0027 45.4618 25.0027C46.5139 25.0027 47.3214 25.4931 47.7958 26.4207L47.8575 26.5399L49.199 25.5643L49.1543 25.4771C48.4979 24.1899 47.1267 23.4208 45.4842 23.4208C43.0066 23.4208 41.1375 25.2941 41.1375 27.7824C41.1375 30.2706 42.9268 32.144 45.298 32.144C46.3373 32.144 47.1756 31.7525 47.7384 31.0089L48.0224 31.9812H49.2373V27.3845H44.8374V28.8728Z" fill="white"/>
<path d="M57.0197 26.0068C57.0197 24.5122 55.8633 23.5835 54.0016 23.5835H50.3975V31.9748H52.1666V28.6632H53.2963L55.1846 31.9748H57.2058L55.2037 28.4642C56.4058 27.9898 57.0197 27.1632 57.0197 26.0068ZM55.2516 26.1239C55.2516 26.7622 54.8261 27.0813 54.0016 27.0813H52.1666V25.1664H53.9984C54.8272 25.1654 55.2484 25.4877 55.2484 26.1239H55.2516Z" fill="white"/>
<path d="M61.9015 23.4208C59.443 23.4208 57.5898 25.2941 57.5898 27.7824C57.5898 30.2706 59.443 32.144 61.9015 32.144C64.3599 32.144 66.2131 30.2706 66.2131 27.7824C66.2131 25.2941 64.3599 23.4208 61.9015 23.4208ZM64.4216 27.7824C64.4216 29.4015 63.4089 30.4887 61.9015 30.4887C60.394 30.4887 59.3813 29.4015 59.3813 27.7824C59.3813 26.1633 60.394 25.0761 61.9015 25.0761C63.4089 25.0761 64.4216 26.1601 64.4216 27.7792V27.7824Z" fill="white"/>
<path d="M72.2915 28.6164C72.2915 29.8036 71.6745 30.4833 70.599 30.4833C69.5235 30.4833 68.9065 29.8036 68.9065 28.6164V23.5835H67.1384V28.7706C67.1384 30.8153 68.4959 32.1376 70.599 32.1376C72.7021 32.1376 74.0596 30.8153 74.0596 28.7706V23.5835H72.2915V28.6164Z" fill="white"/>
<path d="M79.1469 23.5835H75.3225V31.9748H77.0906V29.1302H79.1469C81.1022 29.1302 82.316 28.0664 82.316 26.3568C82.316 24.6473 81.1 23.5835 79.1469 23.5835ZM80.5479 26.3568C80.5479 27.1207 80.0469 27.527 79.1001 27.527H77.0906V25.1867H79.098C80.0448 25.1888 80.5458 25.593 80.5458 26.3568H80.5479Z" fill="white"/>
</svg>
