<svg width="10" height="10" viewBox="0 0 10 10" fill="none" xmlns="http://www.w3.org/2000/svg">
<path d="M1.498 0.295V0.945C1.498 1.023 1.53 1.098 1.585 1.154C1.64 1.209 1.715 1.24 1.794 1.24H7.883L0.086 9.037C0.031 9.092 0 9.167 0 9.245C0 9.324 0.031 9.399 0.087 9.454L0.546 9.914C0.661 10.029 0.848 10.029 0.964 9.914L8.76 2.117V8.207C8.76 8.285 8.791 8.36 8.846 8.415C8.902 8.471 8.977 8.502 9.055 8.502H9.705C9.783 8.502 9.858 8.471 9.913 8.415C9.969 8.36 10 8.285 10 8.207V0.295C10 0.217 9.969 0.142 9.913 0.087C9.858 0.031 9.783 0 9.705 0H1.793C1.715 0 1.64 0.031 1.585 0.087C1.529 0.142 1.498 0.217 1.498 0.295Z" fill="#4D4B4B"/>
</svg>
