<svg width="65" height="65" viewBox="0 0 65 65" fill="none" xmlns="http://www.w3.org/2000/svg">
<path d="M27.6571 2.83563C29.7412 -0.945209 35.1331 -0.945209 37.2172 2.83563V2.83563C38.6691 5.46955 41.9485 6.44064 44.5819 5.01648V5.01648C48.362 2.97219 52.898 5.91207 52.6244 10.2291V10.2291C52.4338 13.2365 54.672 15.8414 57.6508 16.0792V16.0792C61.9268 16.4205 64.1667 21.3669 61.6223 24.8494V24.8494C59.8497 27.2755 60.3361 30.6873 62.7146 32.5115V32.5115C66.1288 35.13 65.3615 40.5124 61.3541 42.0548V42.0548C58.5623 43.1293 57.1425 46.2647 58.1655 49.0962V49.0962C59.634 53.1606 56.103 57.2702 51.9049 56.3827V56.3827C48.9804 55.7645 46.1051 57.628 45.4478 60.5677V60.5677C44.5043 64.7876 39.3308 66.3196 36.2749 63.2841V63.2841C34.146 61.1694 30.7283 61.1694 28.5994 63.2841V63.2841C25.5434 66.3196 20.37 64.7876 19.4265 60.5677V60.5677C18.7692 57.628 15.8939 55.7645 12.9693 56.3827V56.3827C8.77127 57.2702 5.24032 53.1606 6.70877 49.0962V49.0962C7.73177 46.2647 6.31197 43.1293 3.52022 42.0548V42.0548C-0.487168 40.5124 -1.25452 35.13 2.15967 32.5115V32.5115C4.53817 30.6873 5.02457 27.2755 3.25202 24.8494V24.8494C0.707634 21.3669 2.94751 16.4205 7.22345 16.0792V16.0792C10.2023 15.8414 12.4405 13.2365 12.2499 10.2291V10.2291C11.9763 5.91207 16.5123 2.97219 20.2924 5.01648V5.01648C22.9258 6.44064 26.2052 5.46955 27.6571 2.83563V2.83563Z" fill="#C4D4DE"/>
</svg>
